<mxfile host="65bd71144e">
    <diagram id="PbanmtJ58wHPTWaSYTZD" name="Page-1">
        <mxGraphModel dx="1184" dy="220" grid="0" gridSize="10" guides="1" tooltips="1" connect="1" arrows="1" fold="1" page="1" pageScale="1" pageWidth="850" pageHeight="1100" math="0" shadow="0">
            <root>
                <mxCell id="0"/>
                <mxCell id="1" parent="0"/>
                <mxCell id="5" style="edgeStyle=none;html=1;" edge="1" parent="1" source="2" target="4">
                    <mxGeometry relative="1" as="geometry"/>
                </mxCell>
                <mxCell id="2" value="Start" style="rounded=1;whiteSpace=wrap;html=1;" vertex="1" parent="1">
                    <mxGeometry x="365" y="90" width="120" height="60" as="geometry"/>
                </mxCell>
                <mxCell id="3" value="End" style="rounded=1;whiteSpace=wrap;html=1;" vertex="1" parent="1">
                    <mxGeometry x="-690" y="3050" width="120" height="60" as="geometry"/>
                </mxCell>
                <mxCell id="11" value="" style="edgeStyle=none;html=1;" edge="1" parent="1" source="4" target="10">
                    <mxGeometry relative="1" as="geometry"/>
                </mxCell>
                <mxCell id="4" value="playerChoice = 0&lt;br&gt;ComputerChoice = 0&lt;br&gt;&lt;br&gt;//Timer Variables:&lt;br&gt;startTime&lt;br&gt;seconds&lt;br&gt;&lt;br&gt;UI variables:&lt;br&gt;SecondsChanged = false&lt;br&gt;gameResult" style="rounded=0;whiteSpace=wrap;html=1;shadow=0;glass=0;align=left;" vertex="1" parent="1">
                    <mxGeometry x="350" y="230" width="150" height="270" as="geometry"/>
                </mxCell>
                <mxCell id="16" style="edgeStyle=orthogonalEdgeStyle;html=1;" edge="1" parent="1" source="10" target="15">
                    <mxGeometry relative="1" as="geometry"/>
                </mxCell>
                <mxCell id="10" value="&lt;div style=&quot;text-align: center;&quot;&gt;&lt;span style=&quot;background-color: initial;&quot;&gt;Show the welcome message to the user&lt;/span&gt;&lt;/div&gt;&lt;div style=&quot;text-align: center;&quot;&gt;&lt;br&gt;&lt;/div&gt;&lt;div style=&quot;text-align: center;&quot;&gt;&lt;span style=&quot;background-color: initial;&quot;&gt;(&lt;/span&gt;&lt;/div&gt;&lt;div style=&quot;text-align: center;&quot;&gt;&lt;span style=&quot;background-color: initial;&quot;&gt;Welcome&lt;/span&gt;&lt;/div&gt;&lt;div style=&quot;text-align: center;&quot;&gt;Are you ready?&amp;nbsp;&lt;br&gt;press to start&lt;/div&gt;&lt;div style=&quot;text-align: center;&quot;&gt;&lt;span style=&quot;background-color: initial;&quot;&gt;)&lt;/span&gt;&lt;/div&gt;" style="whiteSpace=wrap;html=1;align=left;rounded=0;shadow=0;glass=0;" vertex="1" parent="1">
                    <mxGeometry x="365" y="550" width="120" height="120" as="geometry"/>
                </mxCell>
                <mxCell id="19" style="edgeStyle=orthogonalEdgeStyle;html=1;entryX=0;entryY=0.5;entryDx=0;entryDy=0;fontSize=5;" edge="1" parent="1" source="15" target="10">
                    <mxGeometry relative="1" as="geometry">
                        <Array as="points">
                            <mxPoint x="250" y="800"/>
                            <mxPoint x="250" y="610"/>
                        </Array>
                    </mxGeometry>
                </mxCell>
                <mxCell id="20" value="&lt;font style=&quot;font-size: 12px;&quot;&gt;NO&lt;/font&gt;" style="edgeLabel;html=1;align=center;verticalAlign=middle;resizable=0;points=[];fontSize=5;" vertex="1" connectable="0" parent="19">
                    <mxGeometry x="-0.8513" relative="1" as="geometry">
                        <mxPoint as="offset"/>
                    </mxGeometry>
                </mxCell>
                <mxCell id="23" value="" style="edgeStyle=orthogonalEdgeStyle;html=1;fontSize=12;" edge="1" parent="1" source="15" target="22">
                    <mxGeometry relative="1" as="geometry"/>
                </mxCell>
                <mxCell id="24" value="YES" style="edgeLabel;html=1;align=center;verticalAlign=middle;resizable=0;points=[];fontSize=12;" vertex="1" connectable="0" parent="23">
                    <mxGeometry x="-0.388" y="-1" relative="1" as="geometry">
                        <mxPoint as="offset"/>
                    </mxGeometry>
                </mxCell>
                <mxCell id="15" value="start button Pressed?" style="rhombus;whiteSpace=wrap;html=1;rounded=0;shadow=0;glass=0;sketch=0;" vertex="1" parent="1">
                    <mxGeometry x="330" y="730" width="190" height="140" as="geometry"/>
                </mxCell>
                <mxCell id="28" style="edgeStyle=orthogonalEdgeStyle;html=1;fontSize=12;startArrow=none;" edge="1" parent="1" source="191" target="27">
                    <mxGeometry relative="1" as="geometry"/>
                </mxCell>
                <mxCell id="192" style="edgeStyle=orthogonalEdgeStyle;html=1;fontSize=10;" edge="1" parent="1" source="22" target="191">
                    <mxGeometry relative="1" as="geometry"/>
                </mxCell>
                <mxCell id="22" value="change UI to gameplay Screen" style="whiteSpace=wrap;html=1;rounded=0;shadow=0;glass=0;sketch=0;fontSize=12;" vertex="1" parent="1">
                    <mxGeometry x="330" y="970" width="190" height="70" as="geometry"/>
                </mxCell>
                <mxCell id="25" value="is the timer in progress?" style="rhombus;whiteSpace=wrap;html=1;rounded=0;shadow=0;glass=0;sketch=0;fontSize=12;" vertex="1" parent="1">
                    <mxGeometry x="890" y="1180" width="190" height="160" as="geometry"/>
                </mxCell>
                <mxCell id="172" style="edgeStyle=orthogonalEdgeStyle;html=1;fontSize=10;" edge="1" parent="1" source="27" target="171">
                    <mxGeometry relative="1" as="geometry"/>
                </mxCell>
                <mxCell id="27" value="Show options for player choice&lt;br&gt;(Rock, pape, scissors icons)" style="whiteSpace=wrap;html=1;rounded=0;shadow=0;glass=0;sketch=0;fontSize=12;" vertex="1" parent="1">
                    <mxGeometry x="330" y="1270" width="190" height="80" as="geometry"/>
                </mxCell>
                <mxCell id="32" style="edgeStyle=orthogonalEdgeStyle;html=1;fontSize=12;" edge="1" parent="1" source="29" target="31">
                    <mxGeometry relative="1" as="geometry"/>
                </mxCell>
                <mxCell id="29" value="calculate passed seconds&lt;br&gt;(seconds = currentrTime - startTime)" style="whiteSpace=wrap;html=1;rounded=0;shadow=0;glass=0;sketch=0;fontSize=12;" vertex="1" parent="1">
                    <mxGeometry x="330" y="2030" width="190" height="80" as="geometry"/>
                </mxCell>
                <mxCell id="38" style="edgeStyle=orthogonalEdgeStyle;html=1;fontSize=12;startArrow=none;" edge="1" parent="1" target="37">
                    <mxGeometry relative="1" as="geometry">
                        <mxPoint x="425" y="2550" as="sourcePoint"/>
                    </mxGeometry>
                </mxCell>
                <mxCell id="196" style="edgeStyle=orthogonalEdgeStyle;html=1;fontSize=10;entryX=0.004;entryY=0.537;entryDx=0;entryDy=0;entryPerimeter=0;startArrow=none;" edge="1" parent="1" source="216" target="27">
                    <mxGeometry relative="1" as="geometry">
                        <Array as="points">
                            <mxPoint x="-327" y="1310"/>
                            <mxPoint x="320" y="1310"/>
                            <mxPoint x="320" y="1313"/>
                        </Array>
                    </mxGeometry>
                </mxCell>
                <mxCell id="31" value="is the timer reached &lt;br&gt;to 3 seconds?" style="rhombus;whiteSpace=wrap;html=1;rounded=0;shadow=0;glass=0;sketch=0;fontSize=12;" vertex="1" parent="1">
                    <mxGeometry x="330" y="2170" width="190" height="100" as="geometry"/>
                </mxCell>
                <mxCell id="41" value="" style="edgeStyle=orthogonalEdgeStyle;html=1;fontSize=12;" edge="1" parent="1" source="37" target="42">
                    <mxGeometry relative="1" as="geometry">
                        <mxPoint x="425" y="2860" as="targetPoint"/>
                    </mxGeometry>
                </mxCell>
                <mxCell id="37" value="Get computer choice&lt;br&gt;(&lt;span style=&quot;text-align: left;&quot;&gt;ComputerChoice&amp;nbsp;= RandomSelection (1,3)&amp;nbsp;&lt;/span&gt;)" style="whiteSpace=wrap;html=1;rounded=0;shadow=0;glass=0;sketch=0;fontSize=12;" vertex="1" parent="1">
                    <mxGeometry x="325" y="2630" width="200" height="76" as="geometry"/>
                </mxCell>
                <mxCell id="93" style="edgeStyle=orthogonalEdgeStyle;html=1;fontSize=10;entryX=0.5;entryY=0;entryDx=0;entryDy=0;" edge="1" parent="1" source="42" target="140">
                    <mxGeometry relative="1" as="geometry">
                        <mxPoint x="660" y="2880" as="targetPoint"/>
                    </mxGeometry>
                </mxCell>
                <mxCell id="94" value="SCISSORS&lt;br&gt;playerChoice = 3" style="edgeLabel;html=1;align=center;verticalAlign=middle;resizable=0;points=[];fontSize=10;" vertex="1" connectable="0" parent="93">
                    <mxGeometry x="-0.1903" y="1" relative="1" as="geometry">
                        <mxPoint x="-299" y="1" as="offset"/>
                    </mxGeometry>
                </mxCell>
                <mxCell id="103" value="" style="edgeStyle=orthogonalEdgeStyle;html=1;fontSize=10;" edge="1" parent="1" source="42" target="100">
                    <mxGeometry relative="1" as="geometry"/>
                </mxCell>
                <mxCell id="104" value="ROCK&lt;br&gt;playerChoice = 1" style="edgeLabel;html=1;align=center;verticalAlign=middle;resizable=0;points=[];fontSize=10;" vertex="1" connectable="0" parent="103">
                    <mxGeometry x="-0.2111" y="3" relative="1" as="geometry">
                        <mxPoint x="-3" y="18" as="offset"/>
                    </mxGeometry>
                </mxCell>
                <mxCell id="134" value="" style="edgeStyle=orthogonalEdgeStyle;html=1;fontSize=10;" edge="1" source="140" target="141" parent="103">
                    <mxGeometry relative="1" as="geometry"/>
                </mxCell>
                <mxCell id="135" value="ROCK&lt;br&gt;computerChoice = 1" style="edgeLabel;html=1;align=center;verticalAlign=middle;resizable=0;points=[];fontSize=10;" vertex="1" connectable="0" parent="134">
                    <mxGeometry x="-0.2115" y="-2" relative="1" as="geometry">
                        <mxPoint as="offset"/>
                    </mxGeometry>
                </mxCell>
                <mxCell id="148" value="" style="edgeStyle=orthogonalEdgeStyle;html=1;fontSize=10;" edge="1" source="154" target="155" parent="103">
                    <mxGeometry relative="1" as="geometry"/>
                </mxCell>
                <mxCell id="149" value="ROCK&lt;br&gt;computerChoice = 1" style="edgeLabel;html=1;align=center;verticalAlign=middle;resizable=0;points=[];fontSize=10;" vertex="1" connectable="0" parent="148">
                    <mxGeometry x="-0.2115" y="-2" relative="1" as="geometry">
                        <mxPoint as="offset"/>
                    </mxGeometry>
                </mxCell>
                <mxCell id="111" value="PAPER&lt;br&gt;playerChoice = 2" style="edgeStyle=orthogonalEdgeStyle;html=1;fontSize=10;" edge="1" parent="1" source="42" target="154">
                    <mxGeometry x="-0.8973" relative="1" as="geometry">
                        <mxPoint x="215" y="2880" as="targetPoint"/>
                        <mxPoint x="1" as="offset"/>
                    </mxGeometry>
                </mxCell>
                <mxCell id="42" value="what is players decission ?" style="rhombus;whiteSpace=wrap;html=1;rounded=0;shadow=0;glass=0;sketch=0;fontSize=12;" vertex="1" parent="1">
                    <mxGeometry x="330" y="2830" width="190" height="100" as="geometry"/>
                </mxCell>
                <mxCell id="51" value="" style="edgeStyle=orthogonalEdgeStyle;html=1;fontSize=12;endArrow=none;startArrow=none;" edge="1" parent="1" source="59" target="53">
                    <mxGeometry relative="1" as="geometry">
                        <mxPoint x="425" y="2270" as="sourcePoint"/>
                        <mxPoint x="425" y="2500" as="targetPoint"/>
                    </mxGeometry>
                </mxCell>
                <mxCell id="63" value="" style="edgeStyle=orthogonalEdgeStyle;html=1;fontSize=10;" edge="1" parent="1" source="53" target="62">
                    <mxGeometry relative="1" as="geometry"/>
                </mxCell>
                <mxCell id="64" value="NO" style="edgeLabel;html=1;align=center;verticalAlign=middle;resizable=0;points=[];fontSize=10;" vertex="1" connectable="0" parent="63">
                    <mxGeometry x="-0.2739" relative="1" as="geometry">
                        <mxPoint x="31" as="offset"/>
                    </mxGeometry>
                </mxCell>
                <mxCell id="53" value="has player made any choices?&lt;br&gt;&lt;font style=&quot;font-size: 10px;&quot;&gt;(playerChoice != 0)&lt;/font&gt;" style="rhombus;whiteSpace=wrap;html=1;rounded=0;shadow=0;glass=0;sketch=0;fontSize=12;" vertex="1" parent="1">
                    <mxGeometry x="320" y="2460" width="210" height="80" as="geometry"/>
                </mxCell>
                <mxCell id="55" value="" style="edgeStyle=orthogonalEdgeStyle;html=1;fontSize=12;startArrow=none;endArrow=none;" edge="1" parent="1" source="53" target="37">
                    <mxGeometry relative="1" as="geometry">
                        <mxPoint x="425" y="2410" as="sourcePoint"/>
                        <mxPoint x="425" y="2490" as="targetPoint"/>
                    </mxGeometry>
                </mxCell>
                <mxCell id="56" value="Yes" style="edgeLabel;html=1;align=center;verticalAlign=middle;resizable=0;points=[];fontSize=10;" vertex="1" connectable="0" parent="55">
                    <mxGeometry x="-0.2209" y="2" relative="1" as="geometry">
                        <mxPoint x="-2" y="-15" as="offset"/>
                    </mxGeometry>
                </mxCell>
                <mxCell id="60" value="" style="edgeStyle=orthogonalEdgeStyle;html=1;fontSize=12;endArrow=none;" edge="1" parent="1" source="31" target="59">
                    <mxGeometry relative="1" as="geometry">
                        <mxPoint x="425" y="2270" as="sourcePoint"/>
                        <mxPoint x="425" y="2520" as="targetPoint"/>
                    </mxGeometry>
                </mxCell>
                <mxCell id="61" value="YES&lt;br&gt;Seconds &amp;gt;= 3" style="edgeLabel;html=1;align=center;verticalAlign=middle;resizable=0;points=[];fontSize=12;" vertex="1" connectable="0" parent="60">
                    <mxGeometry x="-0.081" relative="1" as="geometry">
                        <mxPoint as="offset"/>
                    </mxGeometry>
                </mxCell>
                <mxCell id="59" value="&lt;span style=&quot;font-size: 12px;&quot;&gt;stop the timer&amp;nbsp;&lt;/span&gt;&lt;span style=&quot;font-size: 12px;&quot;&gt;&lt;br&gt;&lt;/span&gt;" style="rounded=0;whiteSpace=wrap;html=1;shadow=0;glass=0;sketch=0;fontSize=10;" vertex="1" parent="1">
                    <mxGeometry x="365" y="2350" width="120" height="60" as="geometry"/>
                </mxCell>
                <mxCell id="66" value="" style="edgeStyle=orthogonalEdgeStyle;html=1;fontSize=10;" edge="1" parent="1" source="62" target="65">
                    <mxGeometry relative="1" as="geometry"/>
                </mxCell>
                <mxCell id="62" value="computer Wins!&lt;br&gt;(gameResult = -1)" style="whiteSpace=wrap;html=1;rounded=0;shadow=0;glass=0;sketch=0;fontSize=10;" vertex="1" parent="1">
                    <mxGeometry x="60" y="2470" width="120" height="60" as="geometry"/>
                </mxCell>
                <mxCell id="68" value="" style="edgeStyle=orthogonalEdgeStyle;html=1;fontSize=10;" edge="1" parent="1" source="65" target="67">
                    <mxGeometry relative="1" as="geometry"/>
                </mxCell>
                <mxCell id="65" value="Change screen to aftermatch page" style="whiteSpace=wrap;html=1;rounded=0;shadow=0;glass=0;sketch=0;fontSize=10;" vertex="1" parent="1">
                    <mxGeometry x="-140" y="2470" width="120" height="60" as="geometry"/>
                </mxCell>
                <mxCell id="70" value="" style="edgeStyle=orthogonalEdgeStyle;html=1;fontSize=10;" edge="1" parent="1" source="67" target="69">
                    <mxGeometry relative="1" as="geometry"/>
                </mxCell>
                <mxCell id="71" value="PC&lt;br&gt;gameResult = -1" style="edgeLabel;html=1;align=center;verticalAlign=middle;resizable=0;points=[];fontSize=10;" vertex="1" connectable="0" parent="70">
                    <mxGeometry x="-0.7556" relative="1" as="geometry">
                        <mxPoint y="9" as="offset"/>
                    </mxGeometry>
                </mxCell>
                <mxCell id="74" value="" style="edgeStyle=orthogonalEdgeStyle;html=1;fontSize=10;" edge="1" parent="1" source="67" target="73">
                    <mxGeometry relative="1" as="geometry"/>
                </mxCell>
                <mxCell id="75" value="Player&lt;br&gt;gameResult = 1" style="edgeLabel;html=1;align=center;verticalAlign=middle;resizable=0;points=[];fontSize=10;" vertex="1" connectable="0" parent="74">
                    <mxGeometry x="-0.23" y="2" relative="1" as="geometry">
                        <mxPoint as="offset"/>
                    </mxGeometry>
                </mxCell>
                <mxCell id="76" value="" style="edgeStyle=orthogonalEdgeStyle;html=1;fontSize=10;" edge="1" parent="1" source="67" target="72">
                    <mxGeometry relative="1" as="geometry"/>
                </mxCell>
                <mxCell id="77" value="No one&lt;br&gt;gameResult = 0" style="edgeLabel;html=1;align=center;verticalAlign=middle;resizable=0;points=[];fontSize=10;" vertex="1" connectable="0" parent="76">
                    <mxGeometry x="-0.2289" y="-1" relative="1" as="geometry">
                        <mxPoint x="-8" y="1" as="offset"/>
                    </mxGeometry>
                </mxCell>
                <mxCell id="67" value="Who won&lt;br&gt;" style="rhombus;whiteSpace=wrap;html=1;fontSize=10;rounded=0;shadow=0;glass=0;sketch=0;" vertex="1" parent="1">
                    <mxGeometry x="-320" y="2460" width="80" height="80" as="geometry"/>
                </mxCell>
                <mxCell id="128" style="edgeStyle=orthogonalEdgeStyle;html=1;entryX=0.418;entryY=0.001;entryDx=0;entryDy=0;entryPerimeter=0;fontSize=10;" edge="1" parent="1" source="69" target="3">
                    <mxGeometry relative="1" as="geometry">
                        <Array as="points">
                            <mxPoint x="-630" y="2660"/>
                            <mxPoint x="-630" y="3050"/>
                        </Array>
                    </mxGeometry>
                </mxCell>
                <mxCell id="69" value="show &quot;You Lost&quot;" style="whiteSpace=wrap;html=1;fontSize=10;rounded=0;shadow=0;glass=0;sketch=0;" vertex="1" parent="1">
                    <mxGeometry x="-340" y="2630" width="120" height="60" as="geometry"/>
                </mxCell>
                <mxCell id="80" value="" style="edgeStyle=orthogonalEdgeStyle;html=1;fontSize=10;" edge="1" parent="1" source="72" target="79">
                    <mxGeometry relative="1" as="geometry"/>
                </mxCell>
                <mxCell id="72" value="show &quot;You tied try again&quot;&lt;br&gt;" style="whiteSpace=wrap;html=1;fontSize=10;rounded=0;shadow=0;glass=0;sketch=0;" vertex="1" parent="1">
                    <mxGeometry x="-550" y="2470" width="120" height="60" as="geometry"/>
                </mxCell>
                <mxCell id="132" style="edgeStyle=orthogonalEdgeStyle;html=1;fontSize=10;" edge="1" parent="1" source="73" target="3">
                    <mxGeometry relative="1" as="geometry">
                        <Array as="points">
                            <mxPoint x="-750" y="2350"/>
                            <mxPoint x="-750" y="2840"/>
                            <mxPoint x="-630" y="2840"/>
                        </Array>
                    </mxGeometry>
                </mxCell>
                <mxCell id="73" value="show &quot;You Lost&quot;" style="whiteSpace=wrap;html=1;fontSize=10;rounded=0;shadow=0;glass=0;sketch=0;" vertex="1" parent="1">
                    <mxGeometry x="-340" y="2320" width="120" height="60" as="geometry"/>
                </mxCell>
                <mxCell id="81" style="edgeStyle=orthogonalEdgeStyle;html=1;entryX=0.5;entryY=1;entryDx=0;entryDy=0;fontSize=10;" edge="1" parent="1" source="79" target="72">
                    <mxGeometry relative="1" as="geometry">
                        <Array as="points">
                            <mxPoint x="-640" y="2600"/>
                            <mxPoint x="-490" y="2600"/>
                        </Array>
                    </mxGeometry>
                </mxCell>
                <mxCell id="82" value="NO" style="edgeLabel;html=1;align=center;verticalAlign=middle;resizable=0;points=[];fontSize=10;" vertex="1" connectable="0" parent="81">
                    <mxGeometry x="-0.9083" y="-2" relative="1" as="geometry">
                        <mxPoint as="offset"/>
                    </mxGeometry>
                </mxCell>
                <mxCell id="83" style="edgeStyle=orthogonalEdgeStyle;html=1;fontSize=10;" edge="1" parent="1" source="79" target="22">
                    <mxGeometry relative="1" as="geometry">
                        <mxPoint x="-650" y="1640" as="targetPoint"/>
                        <Array as="points">
                            <mxPoint x="-640" y="1005"/>
                        </Array>
                    </mxGeometry>
                </mxCell>
                <mxCell id="84" value="YES" style="edgeLabel;html=1;align=center;verticalAlign=middle;resizable=0;points=[];fontSize=10;" vertex="1" connectable="0" parent="83">
                    <mxGeometry x="-0.7284" y="1" relative="1" as="geometry">
                        <mxPoint x="1" y="203" as="offset"/>
                    </mxGeometry>
                </mxCell>
                <mxCell id="79" value="is retry button pressed?" style="rhombus;whiteSpace=wrap;html=1;fontSize=10;rounded=0;shadow=0;glass=0;sketch=0;" vertex="1" parent="1">
                    <mxGeometry x="-680" y="2460" width="80" height="80" as="geometry"/>
                </mxCell>
                <mxCell id="115" value="" style="edgeStyle=orthogonalEdgeStyle;html=1;fontSize=10;" edge="1" parent="1" source="100" target="114">
                    <mxGeometry relative="1" as="geometry"/>
                </mxCell>
                <mxCell id="116" value="ROCK&lt;br&gt;computerChoice = 1" style="edgeLabel;html=1;align=center;verticalAlign=middle;resizable=0;points=[];fontSize=10;" vertex="1" connectable="0" parent="115">
                    <mxGeometry x="-0.2115" y="-2" relative="1" as="geometry">
                        <mxPoint as="offset"/>
                    </mxGeometry>
                </mxCell>
                <mxCell id="117" style="edgeStyle=orthogonalEdgeStyle;html=1;fontSize=10;" edge="1" parent="1" source="100" target="127">
                    <mxGeometry relative="1" as="geometry">
                        <mxPoint x="190" y="3060" as="targetPoint"/>
                    </mxGeometry>
                </mxCell>
                <mxCell id="118" value="PAPER&lt;br&gt;computerChoice = 2" style="edgeLabel;html=1;align=center;verticalAlign=middle;resizable=0;points=[];fontSize=10;" vertex="1" connectable="0" parent="117">
                    <mxGeometry x="-0.1298" relative="1" as="geometry">
                        <mxPoint as="offset"/>
                    </mxGeometry>
                </mxCell>
                <mxCell id="119" style="edgeStyle=orthogonalEdgeStyle;html=1;fontSize=10;" edge="1" parent="1" source="100" target="126">
                    <mxGeometry relative="1" as="geometry">
                        <mxPoint x="650" y="3060" as="targetPoint"/>
                    </mxGeometry>
                </mxCell>
                <mxCell id="120" value="SCISSORS&lt;br&gt;computerChoice = 3" style="edgeLabel;html=1;align=center;verticalAlign=middle;resizable=0;points=[];fontSize=10;" vertex="1" connectable="0" parent="119">
                    <mxGeometry x="-0.335" y="3" relative="1" as="geometry">
                        <mxPoint x="14" y="3" as="offset"/>
                    </mxGeometry>
                </mxCell>
                <mxCell id="100" value="what is Computer decission ?" style="rhombus;whiteSpace=wrap;html=1;rounded=0;shadow=0;glass=0;sketch=0;fontSize=12;" vertex="1" parent="1">
                    <mxGeometry x="330" y="3010" width="190" height="100" as="geometry"/>
                </mxCell>
                <mxCell id="130" style="edgeStyle=orthogonalEdgeStyle;html=1;fontSize=10;" edge="1" parent="1" source="114" target="65">
                    <mxGeometry relative="1" as="geometry"/>
                </mxCell>
                <mxCell id="114" value="its a tie&lt;br&gt;(gameResult = 0)" style="whiteSpace=wrap;html=1;rounded=0;shadow=0;glass=0;sketch=0;" vertex="1" parent="1">
                    <mxGeometry x="365" y="3180" width="120" height="60" as="geometry"/>
                </mxCell>
                <mxCell id="131" style="edgeStyle=orthogonalEdgeStyle;html=1;fontSize=10;" edge="1" parent="1" source="126" target="65">
                    <mxGeometry relative="1" as="geometry">
                        <Array as="points">
                            <mxPoint x="720" y="3320"/>
                            <mxPoint x="-80" y="3320"/>
                        </Array>
                    </mxGeometry>
                </mxCell>
                <mxCell id="126" value="&lt;span style=&quot;font-size: 12px;&quot;&gt;player Wins!&lt;/span&gt;&lt;br style=&quot;font-size: 12px;&quot;&gt;&lt;span style=&quot;font-size: 12px;&quot;&gt;(gameResult = 1)&lt;/span&gt;" style="rounded=0;whiteSpace=wrap;html=1;shadow=0;glass=0;sketch=0;fontSize=10;" vertex="1" parent="1">
                    <mxGeometry x="660" y="3030" width="120" height="60" as="geometry"/>
                </mxCell>
                <mxCell id="129" style="edgeStyle=orthogonalEdgeStyle;html=1;fontSize=10;" edge="1" parent="1" source="127" target="65">
                    <mxGeometry relative="1" as="geometry"/>
                </mxCell>
                <mxCell id="127" value="&lt;span style=&quot;font-size: 12px;&quot;&gt;Computer Wins!&lt;/span&gt;&lt;br style=&quot;font-size: 12px;&quot;&gt;&lt;span style=&quot;font-size: 12px;&quot;&gt;(gameResult = -1)&lt;/span&gt;" style="rounded=0;whiteSpace=wrap;html=1;shadow=0;glass=0;sketch=0;fontSize=10;" vertex="1" parent="1">
                    <mxGeometry x="60" y="3030" width="120" height="60" as="geometry"/>
                </mxCell>
                <mxCell id="136" style="edgeStyle=orthogonalEdgeStyle;html=1;fontSize=10;" edge="1" source="140" target="143" parent="1">
                    <mxGeometry relative="1" as="geometry">
                        <mxPoint x="1040" y="3060" as="targetPoint"/>
                    </mxGeometry>
                </mxCell>
                <mxCell id="137" value="PAPER&lt;br&gt;computerChoice = 2" style="edgeLabel;html=1;align=center;verticalAlign=middle;resizable=0;points=[];fontSize=10;" vertex="1" connectable="0" parent="136">
                    <mxGeometry x="-0.1298" relative="1" as="geometry">
                        <mxPoint as="offset"/>
                    </mxGeometry>
                </mxCell>
                <mxCell id="138" style="edgeStyle=orthogonalEdgeStyle;html=1;fontSize=10;" edge="1" source="140" target="142" parent="1">
                    <mxGeometry relative="1" as="geometry">
                        <mxPoint x="1500" y="3060" as="targetPoint"/>
                    </mxGeometry>
                </mxCell>
                <mxCell id="139" value="SCISSORS&lt;br&gt;computerChoice = 3" style="edgeLabel;html=1;align=center;verticalAlign=middle;resizable=0;points=[];fontSize=10;" vertex="1" connectable="0" parent="138">
                    <mxGeometry x="-0.335" y="3" relative="1" as="geometry">
                        <mxPoint x="14" y="3" as="offset"/>
                    </mxGeometry>
                </mxCell>
                <mxCell id="140" value="what is Computer decission ?" style="rhombus;whiteSpace=wrap;html=1;rounded=0;shadow=0;glass=0;sketch=0;fontSize=12;" vertex="1" parent="1">
                    <mxGeometry x="1180" y="3010" width="190" height="100" as="geometry"/>
                </mxCell>
                <mxCell id="146" style="edgeStyle=orthogonalEdgeStyle;html=1;entryX=0.5;entryY=1;entryDx=0;entryDy=0;fontSize=10;" edge="1" parent="1" source="141" target="65">
                    <mxGeometry relative="1" as="geometry">
                        <Array as="points">
                            <mxPoint x="1275" y="3320"/>
                            <mxPoint x="-80" y="3320"/>
                        </Array>
                    </mxGeometry>
                </mxCell>
                <mxCell id="141" value="Computer Wins!&lt;br&gt;(gameResult = -1)" style="whiteSpace=wrap;html=1;rounded=0;shadow=0;glass=0;sketch=0;" vertex="1" parent="1">
                    <mxGeometry x="1215" y="3180" width="120" height="60" as="geometry"/>
                </mxCell>
                <mxCell id="147" style="edgeStyle=orthogonalEdgeStyle;html=1;entryX=0.5;entryY=1;entryDx=0;entryDy=0;fontSize=10;" edge="1" parent="1" source="142" target="65">
                    <mxGeometry relative="1" as="geometry">
                        <Array as="points">
                            <mxPoint x="1570" y="3320"/>
                            <mxPoint x="-80" y="3320"/>
                        </Array>
                    </mxGeometry>
                </mxCell>
                <mxCell id="142" value="&lt;span style=&quot;font-size: 12px;&quot;&gt;Its a TIE&lt;/span&gt;&lt;br style=&quot;font-size: 12px;&quot;&gt;&lt;span style=&quot;font-size: 12px;&quot;&gt;(gameResult = 0)&lt;/span&gt;" style="rounded=0;whiteSpace=wrap;html=1;shadow=0;glass=0;sketch=0;fontSize=10;" vertex="1" parent="1">
                    <mxGeometry x="1510" y="3030" width="120" height="60" as="geometry"/>
                </mxCell>
                <mxCell id="145" style="edgeStyle=orthogonalEdgeStyle;html=1;entryX=0.5;entryY=1;entryDx=0;entryDy=0;fontSize=10;" edge="1" parent="1" source="143" target="65">
                    <mxGeometry relative="1" as="geometry">
                        <Array as="points">
                            <mxPoint x="970" y="3320"/>
                            <mxPoint x="-80" y="3320"/>
                        </Array>
                    </mxGeometry>
                </mxCell>
                <mxCell id="143" value="&lt;span style=&quot;font-size: 12px;&quot;&gt;Player Wins!&lt;/span&gt;&lt;br style=&quot;font-size: 12px;&quot;&gt;&lt;span style=&quot;font-size: 12px;&quot;&gt;(gameResult = 1)&lt;/span&gt;" style="rounded=0;whiteSpace=wrap;html=1;shadow=0;glass=0;sketch=0;fontSize=10;" vertex="1" parent="1">
                    <mxGeometry x="910" y="3030" width="120" height="60" as="geometry"/>
                </mxCell>
                <mxCell id="150" style="edgeStyle=orthogonalEdgeStyle;html=1;fontSize=10;" edge="1" source="154" target="157" parent="1">
                    <mxGeometry relative="1" as="geometry">
                        <mxPoint x="-690" y="3440" as="targetPoint"/>
                    </mxGeometry>
                </mxCell>
                <mxCell id="151" value="PAPER&lt;br&gt;computerChoice = 2" style="edgeLabel;html=1;align=center;verticalAlign=middle;resizable=0;points=[];fontSize=10;" vertex="1" connectable="0" parent="150">
                    <mxGeometry x="-0.1298" relative="1" as="geometry">
                        <mxPoint as="offset"/>
                    </mxGeometry>
                </mxCell>
                <mxCell id="152" style="edgeStyle=orthogonalEdgeStyle;html=1;fontSize=10;" edge="1" source="154" target="156" parent="1">
                    <mxGeometry relative="1" as="geometry">
                        <mxPoint x="-230" y="3440" as="targetPoint"/>
                    </mxGeometry>
                </mxCell>
                <mxCell id="153" value="SCISSORS&lt;br&gt;computerChoice = 3" style="edgeLabel;html=1;align=center;verticalAlign=middle;resizable=0;points=[];fontSize=10;" vertex="1" connectable="0" parent="152">
                    <mxGeometry x="-0.335" y="3" relative="1" as="geometry">
                        <mxPoint x="14" y="3" as="offset"/>
                    </mxGeometry>
                </mxCell>
                <mxCell id="154" value="what is Computer decission ?" style="rhombus;whiteSpace=wrap;html=1;rounded=0;shadow=0;glass=0;sketch=0;fontSize=12;" vertex="1" parent="1">
                    <mxGeometry x="-550" y="3390" width="190" height="100" as="geometry"/>
                </mxCell>
                <mxCell id="169" style="edgeStyle=orthogonalEdgeStyle;html=1;fontSize=10;" edge="1" parent="1" source="155" target="65">
                    <mxGeometry relative="1" as="geometry"/>
                </mxCell>
                <mxCell id="155" value="player Wins!&lt;br&gt;(gameResult = 1)" style="whiteSpace=wrap;html=1;rounded=0;shadow=0;glass=0;sketch=0;" vertex="1" parent="1">
                    <mxGeometry x="-515" y="3560" width="120" height="60" as="geometry"/>
                </mxCell>
                <mxCell id="168" style="edgeStyle=orthogonalEdgeStyle;html=1;fontSize=10;" edge="1" parent="1" source="156" target="65">
                    <mxGeometry relative="1" as="geometry">
                        <Array as="points">
                            <mxPoint x="-80" y="3440"/>
                        </Array>
                    </mxGeometry>
                </mxCell>
                <mxCell id="156" value="&lt;span style=&quot;font-size: 12px;&quot;&gt;Computer Wins!&lt;/span&gt;&lt;br style=&quot;font-size: 12px;&quot;&gt;&lt;span style=&quot;font-size: 12px;&quot;&gt;(gameResult = -1)&lt;/span&gt;" style="rounded=0;whiteSpace=wrap;html=1;shadow=0;glass=0;sketch=0;fontSize=10;" vertex="1" parent="1">
                    <mxGeometry x="-220" y="3410" width="120" height="60" as="geometry"/>
                </mxCell>
                <mxCell id="170" style="edgeStyle=orthogonalEdgeStyle;html=1;fontSize=10;" edge="1" parent="1" source="157" target="65">
                    <mxGeometry relative="1" as="geometry">
                        <Array as="points">
                            <mxPoint x="-760" y="3280"/>
                            <mxPoint x="-80" y="3280"/>
                        </Array>
                    </mxGeometry>
                </mxCell>
                <mxCell id="157" value="&lt;span style=&quot;font-size: 12px;&quot;&gt;its a tie&lt;/span&gt;&lt;br style=&quot;font-size: 12px;&quot;&gt;&lt;span style=&quot;font-size: 12px;&quot;&gt;(gameResult = 0)&lt;/span&gt;" style="rounded=0;whiteSpace=wrap;html=1;shadow=0;glass=0;sketch=0;fontSize=10;" vertex="1" parent="1">
                    <mxGeometry x="-820" y="3410" width="120" height="60" as="geometry"/>
                </mxCell>
                <mxCell id="173" style="edgeStyle=orthogonalEdgeStyle;html=1;fontSize=10;" edge="1" parent="1" source="171" target="178">
                    <mxGeometry relative="1" as="geometry">
                        <mxPoint x="425" y="1749.9999999999998" as="targetPoint"/>
                    </mxGeometry>
                </mxCell>
                <mxCell id="176" value="YES" style="edgeLabel;html=1;align=center;verticalAlign=middle;resizable=0;points=[];fontSize=10;" vertex="1" connectable="0" parent="173">
                    <mxGeometry x="-0.2375" y="1" relative="1" as="geometry">
                        <mxPoint x="-1" y="-11" as="offset"/>
                    </mxGeometry>
                </mxCell>
                <mxCell id="205" value="" style="edgeStyle=orthogonalEdgeStyle;html=1;fontSize=10;" edge="1" parent="1" source="171" target="29">
                    <mxGeometry relative="1" as="geometry">
                        <mxPoint x="259.9999999999998" y="1630" as="targetPoint"/>
                        <Array as="points">
                            <mxPoint x="110" y="1630"/>
                            <mxPoint x="110" y="2070"/>
                        </Array>
                    </mxGeometry>
                </mxCell>
                <mxCell id="206" value="NO" style="edgeLabel;html=1;align=center;verticalAlign=middle;resizable=0;points=[];fontSize=10;" vertex="1" connectable="0" parent="205">
                    <mxGeometry x="-0.181" relative="1" as="geometry">
                        <mxPoint x="190" y="-140" as="offset"/>
                    </mxGeometry>
                </mxCell>
                <mxCell id="171" value="has player pressed any of the choices" style="rhombus;whiteSpace=wrap;html=1;rounded=0;shadow=0;glass=0;sketch=0;fontSize=10;" vertex="1" parent="1">
                    <mxGeometry x="330" y="1580" width="190" height="100" as="geometry"/>
                </mxCell>
                <mxCell id="180" value="" style="edgeStyle=orthogonalEdgeStyle;html=1;fontSize=10;" edge="1" parent="1" source="178" target="179">
                    <mxGeometry relative="1" as="geometry"/>
                </mxCell>
                <mxCell id="185" value="ROCK" style="edgeLabel;html=1;align=center;verticalAlign=middle;resizable=0;points=[];fontSize=10;" vertex="1" connectable="0" parent="180">
                    <mxGeometry x="-0.3708" relative="1" as="geometry">
                        <mxPoint x="4" as="offset"/>
                    </mxGeometry>
                </mxCell>
                <mxCell id="182" value="" style="edgeStyle=orthogonalEdgeStyle;html=1;fontSize=10;" edge="1" parent="1" source="178" target="181">
                    <mxGeometry relative="1" as="geometry"/>
                </mxCell>
                <mxCell id="187" value="SCISSORS" style="edgeLabel;html=1;align=center;verticalAlign=middle;resizable=0;points=[];fontSize=10;" vertex="1" connectable="0" parent="182">
                    <mxGeometry x="-0.3692" y="1" relative="1" as="geometry">
                        <mxPoint as="offset"/>
                    </mxGeometry>
                </mxCell>
                <mxCell id="184" value="" style="edgeStyle=orthogonalEdgeStyle;html=1;fontSize=10;" edge="1" parent="1" source="178" target="183">
                    <mxGeometry relative="1" as="geometry"/>
                </mxCell>
                <mxCell id="186" value="PAPER" style="edgeLabel;html=1;align=center;verticalAlign=middle;resizable=0;points=[];fontSize=10;" vertex="1" connectable="0" parent="184">
                    <mxGeometry x="-0.1829" y="-1" relative="1" as="geometry">
                        <mxPoint as="offset"/>
                    </mxGeometry>
                </mxCell>
                <mxCell id="178" value="What icon has been clicked?" style="rhombus;whiteSpace=wrap;html=1;rounded=0;shadow=0;glass=0;sketch=0;fontSize=10;" vertex="1" parent="1">
                    <mxGeometry x="370" y="1760" width="110" height="100" as="geometry"/>
                </mxCell>
                <mxCell id="212" style="edgeStyle=orthogonalEdgeStyle;html=1;fontSize=10;" edge="1" parent="1" source="179" target="29">
                    <mxGeometry relative="1" as="geometry">
                        <Array as="points">
                            <mxPoint x="590" y="1980"/>
                            <mxPoint x="425" y="1980"/>
                        </Array>
                    </mxGeometry>
                </mxCell>
                <mxCell id="179" value="Highlight Rock Icon&lt;br&gt;playerChoice = 1" style="whiteSpace=wrap;html=1;fontSize=10;rounded=0;shadow=0;glass=0;sketch=0;" vertex="1" parent="1">
                    <mxGeometry x="530" y="1780" width="120" height="60" as="geometry"/>
                </mxCell>
                <mxCell id="210" value="" style="edgeStyle=orthogonalEdgeStyle;html=1;fontSize=10;" edge="1" parent="1" source="181" target="29">
                    <mxGeometry relative="1" as="geometry"/>
                </mxCell>
                <mxCell id="181" value="Highlight SCISSORS Icon&lt;br&gt;playerChoice = 3" style="whiteSpace=wrap;html=1;fontSize=10;rounded=0;shadow=0;glass=0;sketch=0;" vertex="1" parent="1">
                    <mxGeometry x="365" y="1890" width="120" height="60" as="geometry"/>
                </mxCell>
                <mxCell id="211" style="edgeStyle=orthogonalEdgeStyle;html=1;fontSize=10;" edge="1" parent="1" source="183" target="29">
                    <mxGeometry relative="1" as="geometry">
                        <Array as="points">
                            <mxPoint x="260" y="1980"/>
                            <mxPoint x="425" y="1980"/>
                        </Array>
                    </mxGeometry>
                </mxCell>
                <mxCell id="183" value="Highlight PAPER Icon&lt;br&gt;playerChoice = 2" style="whiteSpace=wrap;html=1;fontSize=10;rounded=0;shadow=0;glass=0;sketch=0;" vertex="1" parent="1">
                    <mxGeometry x="200" y="1780" width="120" height="60" as="geometry"/>
                </mxCell>
                <mxCell id="191" value="&lt;br style=&quot;font-size: 12px;&quot;&gt;&lt;span style=&quot;font-size: 12px;&quot;&gt;start the timer&lt;/span&gt;&lt;br style=&quot;font-size: 12px;&quot;&gt;&lt;span style=&quot;font-size: 12px;&quot;&gt;(timerActive = true)&lt;/span&gt;&lt;br style=&quot;font-size: 12px;&quot;&gt;&lt;span style=&quot;font-size: 12px;&quot;&gt;startTime = now&lt;/span&gt;&lt;br style=&quot;font-size: 12px;&quot;&gt;&lt;span style=&quot;font-size: 12px;&quot;&gt;seconds = 0&lt;/span&gt;" style="rounded=0;whiteSpace=wrap;html=1;shadow=0;glass=0;sketch=0;fontSize=10;" vertex="1" parent="1">
                    <mxGeometry x="330" y="1080" width="190" height="100" as="geometry"/>
                </mxCell>
                <mxCell id="214" value="" style="edgeStyle=orthogonalEdgeStyle;html=1;fontSize=10;endArrow=none;" edge="1" parent="1" source="31" target="216">
                    <mxGeometry relative="1" as="geometry">
                        <mxPoint x="330" y="2220" as="sourcePoint"/>
                        <mxPoint x="-208" y="2180" as="targetPoint"/>
                        <Array as="points">
                            <mxPoint x="-327" y="2220"/>
                        </Array>
                    </mxGeometry>
                </mxCell>
                <mxCell id="215" value="NO&lt;br&gt;(Seconds &amp;lt; 3)" style="edgeLabel;html=1;align=center;verticalAlign=middle;resizable=0;points=[];fontSize=10;" vertex="1" connectable="0" parent="214">
                    <mxGeometry x="-0.943" y="2" relative="1" as="geometry">
                        <mxPoint x="-12" y="-2" as="offset"/>
                    </mxGeometry>
                </mxCell>
                <mxCell id="216" value="" style="rhombus;whiteSpace=wrap;html=1;rounded=0;shadow=0;glass=0;sketch=0;fontSize=10;" vertex="1" parent="1">
                    <mxGeometry x="-368" y="2072" width="80" height="80" as="geometry"/>
                </mxCell>
            </root>
        </mxGraphModel>
    </diagram>
</mxfile>